<svg data-v-423bf9ae="" xmlns="http://www.w3.org/2000/svg" viewBox="0 0 533 90" class="iconLeftSlogan"><!----><!----><!----><g data-v-423bf9ae="" id="a8eb49de-aafb-4307-aebe-90d22f5fbc96" fill="#ffffff" transform="matrix(6.1412484328310715,0,0,6.1412484328310715,136.30575314566548,-5.09723634359429)"><path d="M6.62 3.54L6.62 3.54L6.62 3.54Q6.62 3.25 6.38 3.04L6.38 3.04L6.38 3.04Q6.13 2.83 5.80 2.83L5.80 2.83L5.80 2.83Q5.12 2.83 4.69 3.59L4.69 3.59L4.69 3.59Q4.26 4.35 4.26 5.32L4.26 5.32L4.26 5.32Q4.26 6.06 4.54 6.66L4.54 6.66L4.54 6.66Q4.82 7.25 5.35 7.60L5.35 7.60L5.35 7.60Q5.88 7.95 6.58 7.95L6.58 7.95L6.58 7.95Q7.10 7.95 7.57 7.75L7.57 7.75L7.57 7.75Q8.05 7.55 8.34 7.30L8.34 7.30L8.34 7.30Q8.64 7.06 8.95 6.85L8.95 6.85L8.95 6.85Q9.27 6.65 9.51 6.65L9.51 6.65L9.51 6.65Q9.81 6.65 10.04 6.89L10.04 6.89L10.04 6.89Q10.26 7.14 10.26 7.41L10.26 7.41L10.26 7.41Q10.26 7.70 10.09 8.09L10.09 8.09L10.09 8.09Q9.91 8.48 9.53 8.93L9.53 8.93L9.53 8.93Q9.16 9.37 8.65 9.74L8.65 9.74L8.65 9.74Q8.15 10.11 7.40 10.35L7.40 10.35L7.40 10.35Q6.65 10.60 5.82 10.60L5.82 10.60L5.82 10.60Q4.73 10.60 3.80 10.27L3.80 10.27L3.80 10.27Q2.87 9.94 2.18 9.33L2.18 9.33L2.18 9.33Q1.50 8.72 1.11 7.80L1.11 7.80L1.11 7.80Q0.71 6.87 0.71 5.73L0.71 5.73L0.71 5.73Q0.71 3.46 2.07 2.14L2.07 2.14L2.07 2.14Q3.43 0.83 5.63 0.83L5.63 0.83L5.63 0.83Q6.75 0.83 7.70 1.20L7.70 1.20L7.70 1.20Q8.65 1.58 9.21 2.25L9.21 2.25L9.21 2.25Q9.77 2.93 9.77 3.72L9.77 3.72L9.77 3.72Q9.77 4.65 9.16 5.40L9.16 5.40L9.16 5.40Q8.54 6.15 7.56 6.15L7.56 6.15L7.56 6.15Q7 6.15 6.55 5.84L6.55 5.84L6.55 5.84Q6.10 5.53 6.10 4.96L6.10 4.96L6.10 4.96Q6.10 4.69 6.36 4.21L6.36 4.21L6.36 4.21Q6.62 3.74 6.62 3.54ZM14.11 10.58L14.11 10.58L14.11 10.58Q13.01 10.58 12.28 9.68L12.28 9.68L12.28 9.68Q11.55 8.78 11.55 7.21L11.55 7.21L11.55 7.21Q11.55 5.61 12.27 4.67L12.27 4.67L12.27 4.67Q12.99 3.72 14.11 3.72L14.11 3.72L14.11 3.72Q15.25 3.72 16.21 4.52L16.21 4.52L16.21 4.52Q16.59 3.82 17.43 3.82L17.43 3.82L17.43 3.82Q18.19 3.82 18.61 4.15L18.61 4.15L18.61 4.15Q19.03 4.48 19.03 5.36L19.03 5.36L19.03 9.00L19.03 9.00Q19.03 9.84 18.68 10.17L18.68 10.17L18.68 10.17Q18.33 10.50 17.44 10.50L17.44 10.50L17.44 10.50Q16.52 10.50 16.23 9.98L16.23 9.98L16.23 9.98Q15.33 10.58 14.11 10.58ZM16.02 8.48L16.02 5.87L16.02 5.87Q15.78 5.46 15.40 5.46L15.40 5.46L15.40 5.46Q15.04 5.46 14.81 5.99L14.81 5.99L14.81 5.99Q14.59 6.52 14.59 7.21L14.59 7.21L14.59 7.21Q14.59 7.85 14.80 8.36L14.80 8.36L14.80 8.36Q15.01 8.86 15.39 8.86L15.39 8.86L15.39 8.86Q15.78 8.86 16.02 8.48L16.02 8.48ZM21.04 7.50L21.04 7.50L21.04 5.85L21.04 5.85Q20.69 5.84 20.48 5.73L20.48 5.73L20.48 5.73Q20.27 5.63 20.18 5.46L20.18 5.46L20.18 5.46Q20.09 5.29 20.09 5.04L20.09 5.04L20.09 5.04Q20.09 4.24 21.06 4.17L21.06 4.17L21.06 2.87L21.06 2.87Q21.06 2.34 21.83 1.91L21.83 1.91L21.83 1.91Q22.60 1.48 23.35 1.48L23.35 1.48L23.35 1.48Q23.81 1.48 23.95 1.75L23.95 1.75L23.95 1.75Q24.09 2.02 24.09 2.55L24.09 2.55L24.11 4.16L24.49 4.16L24.49 4.16Q25.26 4.16 25.54 4.36L25.54 4.36L25.54 4.36Q25.83 4.56 25.83 5.10L25.83 5.10L25.83 5.10Q25.83 5.32 25.75 5.47L25.75 5.47L25.75 5.47Q25.66 5.63 25.47 5.71L25.47 5.71L25.47 5.71Q25.28 5.80 25.02 5.83L25.02 5.83L25.02 5.83Q24.75 5.87 24.36 5.87L24.36 5.87L24.11 5.87L24.11 7.41L24.11 7.41Q24.11 7.63 24.13 7.78L24.13 7.78L24.13 7.78Q24.15 7.92 24.19 8.01L24.19 8.01L24.19 8.01Q24.23 8.09 24.31 8.12L24.31 8.12L24.31 8.12Q24.39 8.15 24.50 8.15L24.50 8.15L24.50 8.15Q24.67 8.15 24.78 8.03L24.78 8.03L24.78 8.03Q24.89 7.91 24.95 7.76L24.95 7.76L24.95 7.76Q25.02 7.62 25.12 7.50L25.12 7.50L25.12 7.50Q25.23 7.38 25.37 7.38L25.37 7.38L25.37 7.38Q25.69 7.38 25.87 7.53L25.87 7.53L25.87 7.53Q26.04 7.69 26.04 7.91L26.04 7.91L26.04 7.91Q26.04 8.29 25.89 8.72L25.89 8.72L25.89 8.72Q25.75 9.16 25.47 9.56L25.47 9.56L25.47 9.56Q25.19 9.97 24.69 10.23L24.69 10.23L24.69 10.23Q24.19 10.50 23.58 10.50L23.58 10.50L23.58 10.50Q22.19 10.50 21.62 9.80L21.62 9.80L21.62 9.80Q21.04 9.10 21.04 7.50ZM37.11 3.54L37.11 3.54L37.11 3.54Q37.11 3.25 36.87 3.04L36.87 3.04L36.87 3.04Q36.62 2.83 36.29 2.83L36.29 2.83L36.29 2.83Q35.62 2.83 35.18 3.59L35.18 3.59L35.18 3.59Q34.75 4.35 34.75 5.32L34.75 5.32L34.75 5.32Q34.75 6.06 35.03 6.66L35.03 6.66L35.03 6.66Q35.31 7.25 35.84 7.60L35.84 7.60L35.84 7.60Q36.37 7.95 37.07 7.95L37.07 7.95L37.07 7.95Q37.59 7.95 38.07 7.75L38.07 7.75L38.07 7.75Q38.54 7.55 38.84 7.30L38.84 7.30L38.84 7.30Q39.13 7.06 39.45 6.85L39.45 6.85L39.45 6.85Q39.76 6.65 40.00 6.65L40.00 6.65L40.00 6.65Q40.31 6.65 40.53 6.89L40.53 6.89L40.53 6.89Q40.75 7.14 40.75 7.41L40.75 7.41L40.75 7.41Q40.75 7.70 40.58 8.09L40.58 8.09L40.58 8.09Q40.40 8.48 40.03 8.93L40.03 8.93L40.03 8.93Q39.65 9.37 39.14 9.74L39.14 9.74L39.14 9.74Q38.64 10.11 37.89 10.35L37.89 10.35L37.89 10.35Q37.14 10.60 36.32 10.60L36.32 10.60L36.32 10.60Q35.22 10.60 34.29 10.27L34.29 10.27L34.29 10.27Q33.36 9.94 32.68 9.33L32.68 9.33L32.68 9.33Q31.99 8.72 31.60 7.80L31.60 7.80L31.60 7.80Q31.21 6.87 31.21 5.73L31.21 5.73L31.21 5.73Q31.21 3.46 32.56 2.14L32.56 2.14L32.56 2.14Q33.92 0.83 36.12 0.83L36.12 0.83L36.12 0.83Q37.24 0.83 38.19 1.20L38.19 1.20L38.19 1.20Q39.14 1.58 39.70 2.25L39.70 2.25L39.70 2.25Q40.26 2.93 40.26 3.72L40.26 3.72L40.26 3.72Q40.26 4.65 39.65 5.40L39.65 5.40L39.65 5.40Q39.03 6.15 38.05 6.15L38.05 6.15L38.05 6.15Q37.49 6.15 37.04 5.84L37.04 5.84L37.04 5.84Q36.60 5.53 36.60 4.96L36.60 4.96L36.60 4.96Q36.60 4.69 36.86 4.21L36.86 4.21L36.86 4.21Q37.11 3.74 37.11 3.54ZM44.60 10.58L44.60 10.58L44.60 10.58Q43.50 10.58 42.77 9.68L42.77 9.68L42.77 9.68Q42.04 8.78 42.04 7.21L42.04 7.21L42.04 7.21Q42.04 5.61 42.76 4.67L42.76 4.67L42.76 4.67Q43.48 3.72 44.60 3.72L44.60 3.72L44.60 3.72Q45.74 3.72 46.70 4.52L46.70 4.52L46.70 4.52Q47.08 3.82 47.92 3.82L47.92 3.82L47.92 3.82Q48.68 3.82 49.10 4.15L49.10 4.15L49.10 4.15Q49.52 4.48 49.52 5.36L49.52 5.36L49.52 9.00L49.52 9.00Q49.52 9.84 49.17 10.17L49.17 10.17L49.17 10.17Q48.82 10.50 47.94 10.50L47.94 10.50L47.94 10.50Q47.01 10.50 46.72 9.98L46.72 9.98L46.72 9.98Q45.82 10.58 44.60 10.58ZM46.51 8.48L46.51 5.87L46.51 5.87Q46.27 5.46 45.89 5.46L45.89 5.46L45.89 5.46Q45.53 5.46 45.30 5.99L45.30 5.99L45.30 5.99Q45.08 6.52 45.08 7.21L45.08 7.21L45.08 7.21Q45.08 7.85 45.29 8.36L45.29 8.36L45.29 8.36Q45.50 8.86 45.88 8.86L45.88 8.86L45.88 8.86Q46.27 8.86 46.51 8.48L46.51 8.48ZM54.94 3.14L54.94 3.14L54.94 3.14Q54.64 3.37 54.64 4.24L54.64 4.24L54.64 4.24Q55.58 4.24 55.94 4.42L55.94 4.42L55.94 4.42Q56.31 4.59 56.31 5.18L56.31 5.18L56.31 5.18Q56.31 5.66 55.92 5.80L55.92 5.80L55.92 5.80Q55.52 5.95 54.64 5.95L54.64 5.95L54.64 8.40L54.64 8.40Q54.64 9.59 54.27 10.04L54.27 10.04L54.27 10.04Q53.90 10.50 53.10 10.50L53.10 10.50L53.10 10.50Q52.32 10.50 51.95 10.06L51.95 10.06L51.95 10.06Q51.59 9.62 51.59 8.50L51.59 8.50L51.60 5.95L51.60 5.95Q50.57 5.94 50.57 5.14L50.57 5.14L50.57 5.14Q50.57 4.31 51.62 4.26L51.62 4.26L51.62 4.26Q51.63 2.45 52.14 1.69L52.14 1.69L52.14 1.69Q52.65 0.92 54.11 0.92L54.11 0.92L54.11 0.92Q55.27 0.92 55.92 1.40L55.92 1.40L55.92 1.40Q56.57 1.88 56.57 2.37L56.57 2.37L56.57 2.37Q56.57 2.58 56.40 2.74L56.40 2.74L56.40 2.74Q56.22 2.90 55.90 2.90L55.90 2.90L55.90 2.90Q55.22 2.90 54.94 3.14ZM61.26 10.58L61.26 10.58L61.26 10.58Q59.56 10.58 58.44 9.70L58.44 9.70L58.44 9.70Q57.33 8.82 57.33 7.29L57.33 7.29L57.33 7.29Q57.33 5.64 58.43 4.68L58.43 4.68L58.43 4.68Q59.53 3.72 61.26 3.72L61.26 3.72L61.26 3.72Q62.90 3.72 63.66 4.30L63.66 4.30L63.66 4.30Q64.43 4.89 64.43 5.89L64.43 5.89L64.43 5.89Q64.43 6.09 64.38 6.27L64.38 6.27L64.38 6.27Q64.33 6.45 64.22 6.63L64.22 6.63L64.22 6.63Q64.12 6.80 63.94 6.95L63.94 6.95L63.94 6.95Q63.77 7.10 63.55 7.22L63.55 7.22L63.55 7.22Q63.32 7.34 63.01 7.40L63.01 7.40L63.01 7.40Q62.71 7.46 62.36 7.46L62.36 7.46L60.38 7.48L60.38 7.48Q60.52 7.92 60.89 8.18L60.89 8.18L60.89 8.18Q61.25 8.44 61.81 8.44L61.81 8.44L61.81 8.44Q62.41 8.44 63.04 8.29L63.04 8.29L63.04 8.29Q63.31 8.22 63.62 8.06L63.62 8.06L63.62 8.06Q63.94 7.91 64.08 7.91L64.08 7.91L64.08 7.91Q64.32 7.91 64.45 8.05L64.45 8.05L64.45 8.05Q64.58 8.19 64.58 8.40L64.58 8.40L64.58 8.40Q64.58 8.65 64.36 9.01L64.36 9.01L64.36 9.01Q64.13 9.37 63.73 9.72L63.73 9.72L63.73 9.72Q63.34 10.08 62.68 10.33L62.68 10.33L62.68 10.33Q62.02 10.58 61.26 10.58ZM60.31 6.58L60.31 6.58L60.31 6.58Q61.28 6.57 61.36 6.57L61.36 6.57L61.36 6.57Q61.57 6.57 61.67 6.31L61.67 6.31L61.67 6.31Q61.74 6.13 61.74 5.81L61.74 5.81L61.74 5.81Q61.74 4.93 61.21 4.93L61.21 4.93L61.21 4.93Q61.01 4.93 60.82 5.14L60.82 5.14L60.82 5.14Q60.63 5.35 60.49 5.73L60.49 5.73L60.49 5.73Q60.35 6.12 60.31 6.58Z"></path></g><!----><g data-v-423bf9ae="" id="ba00b58b-d7c7-4751-9201-56b6e068e0fa" transform="matrix(1.2066365994935524,0,0,1.2066365994935524,0.6111558255332312,-15.693404190130849)" stroke="none" fill="#DEB078"><circle cx="35.735" cy="49.639" r="4.397"></circle><circle cx="66.599" cy="49.639" r="4.397"></circle><path d="M43.107 60.675c0 4.168 7.546 7.55 7.546 7.55s7.55-3.382 7.55-7.55-15.096-4.168-15.096 0z"></path><path d="M98.236 69.06l-9.263-1.48a29.861 29.861 0 0 0 1.438-3.615l7.062 1.131c.13.021.258.028.386.028a2.417 2.417 0 0 0 .379-4.803l-6.675-1.067c.28-1.726.427-3.508.427-5.343 0-6.845-4.561-22.027-6.425-26.725-1.431-3.602-2.868-5.95-4.531-8.67a121.748 121.748 0 0 1-2.514-4.245 2.416 2.416 0 0 0-1.964-1.23c-.849-.062-1.611.324-2.097.987-3.021 4.139-7.708 8.75-9.605 8.75-.775 0-2.202-.176-3.855-.38-2.922-.36-6.562-.81-10.338-.81-3.111 0-6.12.394-8.776.741-1.843.241-3.434.449-4.533.449-3.984 0-8.543-6.114-9.827-8.256a2.418 2.418 0 0 0-2.058-1.175 2.373 2.373 0 0 0-2.072 1.145c-2.846 4.602-4.725 7.642-6.769 12.961-1.877 4.884-6.276 19.777-6.276 26.457 0 1.735.136 3.422.386 5.062L2.311 60.32a2.417 2.417 0 0 0 .764 4.775l8.765-1.402a29.993 29.993 0 0 0 1.403 3.62L2.307 69.06a2.418 2.418 0 1 0 .764 4.777l12.746-2.039c6.81 9.795 19.501 15.824 35.349 15.824 15.708 0 28.317-5.926 35.172-15.568l11.136 1.781a2.415 2.415 0 0 0 2.768-2.005 2.42 2.42 0 0 0-2.006-2.77zM51.165 82.786c-11.613 0-23.289-3.759-30.068-11.836l2.122-.338a2.417 2.417 0 0 0-.763-4.774l-4.327.693a24.89 24.89 0 0 1-1.531-3.601l6.621-1.057a2.418 2.418 0 0 0-.763-4.775l-6.967 1.115a30.546 30.546 0 0 1-.31-4.302c0-5.423 3.863-19.281 5.955-24.725 1.408-3.665 2.707-6.117 4.445-9.015 2.48 3.151 6.775 7.44 11.767 7.44 1.414 0 3.149-.227 5.16-.489 2.508-.328 5.352-.7 8.15-.7 3.479 0 6.953.428 9.746.772 1.886.232 3.375.417 4.446.417 3.909 0 8.436-4.511 11.267-7.873.271.448.534.88.793 1.301 1.609 2.635 2.883 4.715 4.16 7.93 2.081 5.247 6.083 19.387 6.083 24.941 0 1.6-.129 3.12-.352 4.58l-8.715-1.394a2.408 2.408 0 0 0-2.769 2.005 2.42 2.42 0 0 0 2.004 2.769l8.316 1.329a24.754 24.754 0 0 1-1.567 3.592l-5.984-.957c-1.332-.212-2.559.687-2.77 2.004s.688 2.558 2.003 2.769l3.694.592c-6.804 7.904-18.355 11.587-29.846 11.587z"></path></g><!----><g data-v-423bf9ae="" id="b398ece4-b801-4fdd-967c-372530544b89" fill="#ffffff" transform="matrix(1.0794030223979396,0,0,1.0794030223979396,139.87808620233037,56.826553576822526)"><path d="M0.73 5.77C0.73 9.07 5.71 8.20 5.71 10.65C5.71 11.59 4.87 12.31 3.89 12.31C3.07 12.31 1.47 11.83 1.44 11.47L1.36 10.15C1.34 9.97 1.27 9.91 1.09 9.91L1.02 9.91C0.81 9.91 0.81 10.00 0.81 10.12C0.81 10.32 0.92 11.66 0.95 12.17C0.97 12.38 2.23 12.85 3.77 12.85C5.33 12.85 6.94 11.87 6.94 10.11C6.94 6.79 1.97 7.87 1.97 5.32C1.97 4.31 2.76 3.56 3.79 3.56C4.82 3.56 5.91 4.58 5.91 4.89C5.91 5.01 5.87 5.73 5.87 5.78C5.87 5.92 5.91 5.99 6.17 5.99C6.41 5.99 6.43 5.94 6.43 5.75C6.43 5.04 6.51 3.68 6.51 3.53C6.51 3.30 6.47 3.29 6.20 3.29C5.98 3.29 5.96 3.32 5.95 3.53C5.95 3.61 5.94 3.78 5.89 3.78C5.84 3.78 5.75 3.74 5.68 3.68C4.89 3.14 4.27 3.08 3.77 3.08C2.24 3.08 0.73 4.17 0.73 5.77ZM14.91 12.39C14.91 12.63 14.94 12.68 15.13 12.68C15.46 12.68 16.42 12.64 16.84 12.64C17.26 12.64 21.62 12.68 21.94 12.68C22.20 12.68 22.27 12.66 22.29 12.49C22.34 12.08 22.58 10.72 22.58 10.60C22.58 10.47 22.43 10.44 22.26 10.43C22.16 10.42 22.08 10.46 22.06 10.56L21.90 11.76C21.85 12.05 21.84 12.03 21.62 12.04C21.46 12.05 18.96 12.12 17.53 12.12C17.49 12.12 17.44 11.38 17.44 10.54L17.44 6.66C17.44 5.40 17.46 3.70 17.56 3.70L18.54 3.70C18.77 3.70 18.80 3.63 18.80 3.44C18.80 3.23 18.79 3.19 18.55 3.19C18.23 3.19 17.29 3.23 16.87 3.23C16.45 3.23 15.51 3.19 15.29 3.19C15.06 3.19 15.01 3.22 15.01 3.44C15.01 3.65 15.05 3.70 15.25 3.70L16.07 3.70C16.11 3.70 16.14 4.23 16.14 4.90L16.14 8.13C16.14 10.07 16.11 12.18 16.03 12.18L15.19 12.18C14.97 12.18 14.91 12.21 14.91 12.39ZM30.13 8.15C30.13 11.17 32.47 12.80 34.72 12.80C37.51 12.80 39.48 10.89 39.48 8.06C39.48 5.33 37.73 3.11 34.93 3.11C32.33 3.11 30.13 5.10 30.13 8.15ZM31.53 7.77C31.53 5.64 32.82 3.58 34.79 3.58C37.03 3.58 38.11 5.81 38.11 7.94C38.11 10.08 37.00 12.32 34.73 12.32C32.75 12.32 31.53 10.28 31.53 7.77ZM47.66 7.91C47.66 11.40 50.02 12.89 52.61 12.89C54.50 12.89 56.50 11.89 56.50 11.58C56.50 11.12 56.52 10.68 56.52 10.33C56.52 9.81 56.53 9.56 56.66 9.56L57.09 9.56C57.23 9.56 57.25 9.39 57.25 9.30C57.25 9.18 57.23 9.06 57.09 9.06C56.87 9.06 56.50 9.10 55.83 9.10C55.38 9.10 54.64 9.07 53.96 9.06C53.82 9.06 53.82 9.24 53.82 9.35C53.82 9.45 53.84 9.56 53.97 9.56L55.19 9.56C55.23 9.56 55.29 9.87 55.29 10.33C55.29 10.82 55.27 11.41 55.24 11.65C55.23 11.76 54.59 12.39 53.00 12.39C50.76 12.39 49.17 10.29 49.17 7.94C49.17 5.42 50.72 3.54 52.72 3.54C54.61 3.54 55.79 4.87 55.79 5.03C55.79 5.15 55.73 6.12 55.73 6.17C55.73 6.31 55.78 6.36 56.04 6.36C56.24 6.36 56.31 6.33 56.31 6.15C56.31 5.43 56.35 3.75 56.35 3.56C56.35 3.36 56.25 3.33 56.04 3.33C55.82 3.33 55.79 3.39 55.79 3.56L55.79 3.91C55.79 3.99 55.75 4.02 55.62 3.92C55.34 3.72 54.35 3.08 52.78 3.08C49.94 3.08 47.66 4.79 47.66 7.91ZM64.86 12.39C64.86 12.63 64.86 12.68 65.06 12.68C65.23 12.68 65.55 12.64 66.12 12.64C66.74 12.64 67.28 12.68 67.44 12.68C67.61 12.68 67.61 12.61 67.61 12.40C67.61 12.24 67.61 12.18 67.44 12.18L66.36 12.18C66.36 12.18 66.35 12.18 66.35 12.17C66.36 11.87 67.13 9.90 67.48 9.02C67.55 8.83 67.56 8.79 67.77 8.79L70.60 8.79C70.74 8.79 70.74 8.81 70.81 9.03C71.08 9.77 71.79 11.89 71.79 12.17C71.79 12.18 71.78 12.18 71.78 12.18L71.01 12.18C70.78 12.18 70.77 12.19 70.77 12.39C70.77 12.63 70.78 12.68 70.95 12.68C71.27 12.68 72.14 12.64 72.56 12.64C72.98 12.64 73.65 12.68 73.86 12.68C74.00 12.68 74.02 12.61 74.02 12.40C74.02 12.24 74.00 12.18 73.86 12.18L73.37 12.18C73.28 12.18 72.25 9.34 71.69 7.78L70.01 3.07C70 3.00 69.93 2.94 69.85 2.94C69.72 2.94 69.62 3.16 69.54 3.35C69.38 3.71 69.15 3.84 69.03 4.13L67.55 7.57C67.37 8.01 65.66 12.18 65.53 12.18L65.11 12.18C64.89 12.18 64.86 12.19 64.86 12.39ZM67.76 8.33C67.76 8.30 67.79 8.23 67.83 8.13L69.20 4.77C69.24 4.66 69.27 4.61 69.30 4.61C69.31 4.61 69.33 4.63 69.37 4.77L70.53 8.18C70.56 8.25 70.57 8.29 70.57 8.32C70.57 8.36 70.55 8.37 70.45 8.37L67.94 8.37C67.76 8.37 67.76 8.34 67.76 8.33ZM81.77 12.39C81.77 12.63 81.79 12.68 81.98 12.68C82.17 12.68 82.54 12.64 83.16 12.64C83.79 12.64 84.35 12.68 84.67 12.68C84.84 12.68 84.84 12.61 84.84 12.40C84.84 12.24 84.84 12.18 84.67 12.18L83.47 12.18C83.43 12.18 83.41 11.54 83.41 10.79C83.41 9.46 83.43 7.48 83.43 5.99C83.43 5.25 83.43 4.84 83.44 4.28C83.44 4.02 83.51 4.14 83.64 4.28L90.52 12.66C90.61 12.75 90.69 12.89 90.80 12.89C90.92 12.89 90.99 12.77 90.99 12.54C90.99 12.39 91.15 6.65 91.17 4.48C91.17 4.06 91.20 3.70 91.22 3.70L91.85 3.70C92.08 3.70 92.13 3.68 92.13 3.49C92.13 3.25 92.13 3.19 91.94 3.19C91.74 3.19 91.31 3.23 90.75 3.23C90.13 3.23 89.33 3.19 89.24 3.19C89.07 3.19 89.07 3.26 89.07 3.47C89.07 3.64 89.07 3.70 89.24 3.70L90.54 3.70C90.55 3.70 90.55 4.33 90.55 4.44C90.55 5.85 90.58 8.33 90.58 9.70L90.58 10.29C90.58 10.57 90.57 10.65 90.34 10.37L84.66 3.39C84.55 3.25 84.52 3.19 84.35 3.19C84.27 3.19 83.89 3.23 83.58 3.23C83.29 3.23 82.21 3.19 82.01 3.19C81.84 3.19 81.82 3.26 81.82 3.47C81.82 3.64 81.84 3.70 82.01 3.70L82.92 3.70C82.92 4.17 82.88 8.53 82.81 10.79C82.78 11.69 82.80 12.18 82.68 12.18L82.04 12.18C81.82 12.18 81.77 12.19 81.77 12.39ZM100.38 5.77C100.38 9.07 105.36 8.20 105.36 10.65C105.36 11.59 104.52 12.31 103.54 12.31C102.72 12.31 101.12 11.83 101.09 11.47L101.01 10.15C101.00 9.97 100.93 9.91 100.74 9.91L100.67 9.91C100.46 9.91 100.46 10.00 100.46 10.12C100.46 10.32 100.58 11.66 100.60 12.17C100.62 12.38 101.88 12.85 103.42 12.85C104.99 12.85 106.60 11.87 106.60 10.11C106.60 6.79 101.63 7.87 101.63 5.32C101.63 4.31 102.41 3.56 103.45 3.56C104.47 3.56 105.56 4.58 105.56 4.89C105.56 5.01 105.52 5.73 105.52 5.78C105.52 5.92 105.56 5.99 105.83 5.99C106.06 5.99 106.08 5.94 106.08 5.75C106.08 5.04 106.16 3.68 106.16 3.53C106.16 3.30 106.12 3.29 105.85 3.29C105.63 3.29 105.62 3.32 105.60 3.53C105.60 3.61 105.59 3.78 105.55 3.78C105.49 3.78 105.41 3.74 105.34 3.68C104.54 3.14 103.92 3.08 103.42 3.08C101.89 3.08 100.38 4.17 100.38 5.77ZM114.56 12.39C114.56 12.63 114.59 12.68 114.79 12.68C115.11 12.68 116.07 12.64 116.49 12.64C116.91 12.64 121.27 12.68 121.59 12.68C121.86 12.68 121.93 12.66 121.94 12.49C122.00 12.08 122.23 10.72 122.23 10.60C122.23 10.47 122.08 10.44 121.91 10.43C121.81 10.42 121.73 10.46 121.72 10.56L121.55 11.76C121.51 12.05 121.49 12.03 121.27 12.04C121.11 12.05 118.61 12.12 117.18 12.12C117.14 12.12 117.10 11.38 117.10 10.54L117.10 6.66C117.10 5.40 117.11 3.70 117.21 3.70L118.19 3.70C118.43 3.70 118.45 3.63 118.45 3.44C118.45 3.23 118.44 3.19 118.20 3.19C117.88 3.19 116.94 3.23 116.52 3.23C116.10 3.23 115.16 3.19 114.94 3.19C114.72 3.19 114.66 3.22 114.66 3.44C114.66 3.65 114.70 3.70 114.90 3.70L115.72 3.70C115.77 3.70 115.79 4.23 115.79 4.90L115.79 8.13C115.79 10.07 115.77 12.18 115.68 12.18L114.84 12.18C114.62 12.18 114.56 12.21 114.56 12.39ZM129.78 8.15C129.78 11.17 132.12 12.80 134.37 12.80C137.16 12.80 139.13 10.89 139.13 8.06C139.13 5.33 137.38 3.11 134.58 3.11C131.98 3.11 129.78 5.10 129.78 8.15ZM131.18 7.77C131.18 5.64 132.47 3.58 134.44 3.58C136.68 3.58 137.76 5.81 137.76 7.94C137.76 10.08 136.65 12.32 134.39 12.32C132.40 12.32 131.18 10.28 131.18 7.77ZM147.31 7.91C147.31 11.40 149.67 12.89 152.26 12.89C154.15 12.89 156.16 11.89 156.16 11.58C156.16 11.12 156.17 10.68 156.17 10.33C156.17 9.81 156.18 9.56 156.31 9.56L156.74 9.56C156.88 9.56 156.90 9.39 156.90 9.30C156.90 9.18 156.88 9.06 156.74 9.06C156.52 9.06 156.16 9.10 155.48 9.10C155.04 9.10 154.29 9.07 153.61 9.06C153.47 9.06 153.47 9.24 153.47 9.35C153.47 9.45 153.50 9.56 153.62 9.56L154.84 9.56C154.88 9.56 154.94 9.87 154.94 10.33C154.94 10.82 154.92 11.41 154.90 11.65C154.88 11.76 154.24 12.39 152.66 12.39C150.42 12.39 148.82 10.29 148.82 7.94C148.82 5.42 150.37 3.54 152.38 3.54C154.27 3.54 155.44 4.87 155.44 5.03C155.44 5.15 155.39 6.12 155.39 6.17C155.39 6.31 155.43 6.36 155.69 6.36C155.89 6.36 155.96 6.33 155.96 6.15C155.96 5.43 156.00 3.75 156.00 3.56C156.00 3.36 155.90 3.33 155.69 3.33C155.47 3.33 155.44 3.39 155.44 3.56L155.44 3.91C155.44 3.99 155.40 4.02 155.27 3.92C154.99 3.72 154 3.08 152.43 3.08C149.59 3.08 147.31 4.79 147.31 7.91ZM164.51 12.39C164.51 12.63 164.51 12.68 164.71 12.68C164.88 12.68 165.20 12.64 165.77 12.64C166.39 12.64 166.94 12.68 167.09 12.68C167.26 12.68 167.26 12.61 167.26 12.40C167.26 12.24 167.26 12.18 167.09 12.18L166.01 12.18C166.01 12.18 166.00 12.18 166.00 12.17C166.01 11.87 166.78 9.90 167.13 9.02C167.20 8.83 167.22 8.79 167.43 8.79L170.25 8.79C170.39 8.79 170.39 8.81 170.46 9.03C170.73 9.77 171.44 11.89 171.44 12.17C171.44 12.18 171.43 12.18 171.43 12.18L170.66 12.18C170.44 12.18 170.42 12.19 170.42 12.39C170.42 12.63 170.44 12.68 170.60 12.68C170.93 12.68 171.79 12.64 172.21 12.64C172.63 12.64 173.31 12.68 173.52 12.68C173.66 12.68 173.67 12.61 173.67 12.40C173.67 12.24 173.66 12.18 173.52 12.18L173.03 12.18C172.93 12.18 171.91 9.34 171.35 7.78L169.67 3.07C169.65 3.00 169.58 2.94 169.50 2.94C169.37 2.94 169.27 3.16 169.19 3.35C169.04 3.71 168.80 3.84 168.69 4.13L167.20 7.57C167.02 8.01 165.31 12.18 165.19 12.18L164.77 12.18C164.54 12.18 164.51 12.19 164.51 12.39ZM167.41 8.33C167.41 8.30 167.44 8.23 167.48 8.13L168.85 4.77C168.90 4.66 168.92 4.61 168.95 4.61C168.97 4.61 168.98 4.63 169.02 4.77L170.18 8.18C170.21 8.25 170.23 8.29 170.23 8.32C170.23 8.36 170.20 8.37 170.10 8.37L167.59 8.37C167.41 8.37 167.41 8.34 167.41 8.33ZM181.43 12.39C181.43 12.63 181.44 12.68 181.64 12.68C181.82 12.68 182.20 12.64 182.81 12.64C183.44 12.64 184.00 12.68 184.32 12.68C184.49 12.68 184.49 12.61 184.49 12.40C184.49 12.24 184.49 12.18 184.32 12.18L183.12 12.18C183.08 12.18 183.06 11.54 183.06 10.79C183.06 9.46 183.08 7.48 183.08 5.99C183.08 5.25 183.08 4.84 183.09 4.28C183.09 4.02 183.16 4.14 183.29 4.28L190.18 12.66C190.26 12.75 190.34 12.89 190.46 12.89C190.57 12.89 190.64 12.77 190.64 12.54C190.64 12.39 190.81 6.65 190.82 4.48C190.82 4.06 190.85 3.70 190.88 3.70L191.51 3.70C191.73 3.70 191.79 3.68 191.79 3.49C191.79 3.25 191.79 3.19 191.59 3.19C191.39 3.19 190.96 3.23 190.40 3.23C189.78 3.23 188.99 3.19 188.89 3.19C188.72 3.19 188.72 3.26 188.72 3.47C188.72 3.64 188.72 3.70 188.89 3.70L190.19 3.70C190.20 3.70 190.20 4.33 190.20 4.44C190.20 5.85 190.23 8.33 190.23 9.70L190.23 10.29C190.23 10.57 190.22 10.65 189.99 10.37L184.31 3.39C184.20 3.25 184.17 3.19 184.00 3.19C183.92 3.19 183.54 3.23 183.23 3.23C182.94 3.23 181.86 3.19 181.66 3.19C181.50 3.19 181.47 3.26 181.47 3.47C181.47 3.64 181.50 3.70 181.66 3.70L182.57 3.70C182.57 4.17 182.53 8.53 182.46 10.79C182.43 11.69 182.45 12.18 182.34 12.18L181.69 12.18C181.47 12.18 181.43 12.19 181.43 12.39ZM200.03 5.77C200.03 9.07 205.02 8.20 205.02 10.65C205.02 11.59 204.18 12.31 203.20 12.31C202.37 12.31 200.77 11.83 200.75 11.47L200.66 10.15C200.65 9.97 200.58 9.91 200.40 9.91L200.33 9.91C200.12 9.91 200.12 10.00 200.12 10.12C200.12 10.32 200.23 11.66 200.26 12.17C200.27 12.38 201.53 12.85 203.07 12.85C204.64 12.85 206.25 11.87 206.25 10.11C206.25 6.79 201.28 7.87 201.28 5.32C201.28 4.31 202.06 3.56 203.10 3.56C204.12 3.56 205.21 4.58 205.21 4.89C205.21 5.01 205.17 5.73 205.17 5.78C205.17 5.92 205.21 5.99 205.48 5.99C205.72 5.99 205.73 5.94 205.73 5.75C205.73 5.04 205.81 3.68 205.81 3.53C205.81 3.30 205.77 3.29 205.51 3.29C205.28 3.29 205.27 3.32 205.25 3.53C205.25 3.61 205.24 3.78 205.20 3.78C205.14 3.78 205.06 3.74 204.99 3.68C204.19 3.14 203.57 3.08 203.07 3.08C201.54 3.08 200.03 4.17 200.03 5.77ZM214.21 12.39C214.21 12.63 214.24 12.68 214.44 12.68C214.76 12.68 215.73 12.64 216.15 12.64C216.57 12.64 220.92 12.68 221.24 12.68C221.51 12.68 221.58 12.66 221.59 12.49C221.65 12.08 221.89 10.72 221.89 10.60C221.89 10.47 221.73 10.44 221.56 10.43C221.47 10.42 221.38 10.46 221.37 10.56L221.20 11.76C221.16 12.05 221.14 12.03 220.92 12.04C220.77 12.05 218.26 12.12 216.83 12.12C216.79 12.12 216.75 11.38 216.75 10.54L216.75 6.66C216.75 5.40 216.76 3.70 216.86 3.70L217.84 3.70C218.08 3.70 218.11 3.63 218.11 3.44C218.11 3.23 218.09 3.19 217.85 3.19C217.53 3.19 216.59 3.23 216.17 3.23C215.75 3.23 214.82 3.19 214.59 3.19C214.37 3.19 214.31 3.22 214.31 3.44C214.31 3.65 214.35 3.70 214.55 3.70L215.38 3.70C215.42 3.70 215.45 4.23 215.45 4.90L215.45 8.13C215.45 10.07 215.42 12.18 215.33 12.18L214.49 12.18C214.27 12.18 214.21 12.21 214.21 12.39ZM229.43 8.15C229.43 11.17 231.77 12.80 234.02 12.80C236.81 12.80 238.78 10.89 238.78 8.06C238.78 5.33 237.03 3.11 234.23 3.11C231.63 3.11 229.43 5.10 229.43 8.15ZM230.83 7.77C230.83 5.64 232.12 3.58 234.09 3.58C236.33 3.58 237.41 5.81 237.41 7.94C237.41 10.08 236.31 12.32 234.04 12.32C232.05 12.32 230.83 10.28 230.83 7.77ZM246.96 7.91C246.96 11.40 249.33 12.89 251.92 12.89C253.81 12.89 255.81 11.89 255.81 11.58C255.81 11.12 255.82 10.68 255.82 10.33C255.82 9.81 255.84 9.56 255.96 9.56L256.40 9.56C256.54 9.56 256.55 9.39 256.55 9.30C256.55 9.18 256.54 9.06 256.40 9.06C256.17 9.06 255.81 9.10 255.14 9.10C254.69 9.10 253.95 9.07 253.26 9.06C253.12 9.06 253.12 9.24 253.12 9.35C253.12 9.45 253.15 9.56 253.27 9.56L254.49 9.56C254.53 9.56 254.59 9.87 254.59 10.33C254.59 10.82 254.58 11.41 254.55 11.65C254.53 11.76 253.89 12.39 252.31 12.39C250.07 12.39 248.47 10.29 248.47 7.94C248.47 5.42 250.03 3.54 252.03 3.54C253.92 3.54 255.09 4.87 255.09 5.03C255.09 5.15 255.04 6.12 255.04 6.17C255.04 6.31 255.08 6.36 255.35 6.36C255.54 6.36 255.61 6.33 255.61 6.15C255.61 5.43 255.65 3.75 255.65 3.56C255.65 3.36 255.56 3.33 255.35 3.33C255.12 3.33 255.09 3.39 255.09 3.56L255.09 3.91C255.09 3.99 255.05 4.02 254.93 3.92C254.65 3.72 253.65 3.08 252.08 3.08C249.24 3.08 246.96 4.79 246.96 7.91ZM264.17 12.39C264.17 12.63 264.17 12.68 264.36 12.68C264.53 12.68 264.85 12.64 265.43 12.64C266.04 12.64 266.59 12.68 266.74 12.68C266.91 12.68 266.91 12.61 266.91 12.40C266.91 12.24 266.91 12.18 266.74 12.18L265.66 12.18C265.66 12.18 265.65 12.18 265.65 12.17C265.66 11.87 266.43 9.90 266.78 9.02C266.85 8.83 266.87 8.79 267.08 8.79L269.91 8.79C270.05 8.79 270.05 8.81 270.12 9.03C270.38 9.77 271.10 11.89 271.10 12.17C271.10 12.18 271.08 12.18 271.08 12.18L270.31 12.18C270.09 12.18 270.07 12.19 270.07 12.39C270.07 12.63 270.09 12.68 270.26 12.68C270.58 12.68 271.45 12.64 271.87 12.64C272.29 12.64 272.96 12.68 273.17 12.68C273.31 12.68 273.32 12.61 273.32 12.40C273.32 12.24 273.31 12.18 273.17 12.18L272.68 12.18C272.58 12.18 271.56 9.34 271.00 7.78L269.32 3.07C269.30 3.00 269.23 2.94 269.15 2.94C269.02 2.94 268.93 3.16 268.84 3.35C268.69 3.71 268.45 3.84 268.34 4.13L266.85 7.57C266.67 8.01 264.96 12.18 264.84 12.18L264.42 12.18C264.19 12.18 264.17 12.19 264.17 12.39ZM267.06 8.33C267.06 8.30 267.09 8.23 267.13 8.13L268.51 4.77C268.55 4.66 268.58 4.61 268.60 4.61C268.62 4.61 268.63 4.63 268.67 4.77L269.84 8.18C269.86 8.25 269.88 8.29 269.88 8.32C269.88 8.36 269.85 8.37 269.75 8.37L267.25 8.37C267.06 8.37 267.06 8.34 267.06 8.33ZM281.08 12.39C281.08 12.63 281.09 12.68 281.29 12.68C281.47 12.68 281.85 12.64 282.46 12.64C283.09 12.64 283.65 12.68 283.98 12.68C284.14 12.68 284.14 12.61 284.14 12.40C284.14 12.24 284.14 12.18 283.98 12.18L282.77 12.18C282.73 12.18 282.72 11.54 282.72 10.79C282.72 9.46 282.73 7.48 282.73 5.99C282.73 5.25 282.73 4.84 282.74 4.28C282.74 4.02 282.81 4.14 282.94 4.28L289.83 12.66C289.91 12.75 290.00 12.89 290.11 12.89C290.22 12.89 290.29 12.77 290.29 12.54C290.29 12.39 290.46 6.65 290.47 4.48C290.47 4.06 290.50 3.70 290.53 3.70L291.16 3.70C291.38 3.70 291.44 3.68 291.44 3.49C291.44 3.25 291.44 3.19 291.24 3.19C291.05 3.19 290.61 3.23 290.05 3.23C289.44 3.23 288.64 3.19 288.54 3.19C288.37 3.19 288.37 3.26 288.37 3.47C288.37 3.64 288.37 3.70 288.54 3.70L289.84 3.70C289.86 3.70 289.86 4.33 289.86 4.44C289.86 5.85 289.88 8.33 289.88 9.70L289.88 10.29C289.88 10.57 289.87 10.65 289.65 10.37L283.96 3.39C283.85 3.25 283.82 3.19 283.65 3.19C283.57 3.19 283.19 3.23 282.88 3.23C282.59 3.23 281.51 3.19 281.32 3.19C281.15 3.19 281.12 3.26 281.12 3.47C281.12 3.64 281.15 3.70 281.32 3.70L282.23 3.70C282.23 4.17 282.18 8.53 282.11 10.79C282.09 11.69 282.10 12.18 281.99 12.18L281.34 12.18C281.12 12.18 281.08 12.19 281.08 12.39Z"></path></g></svg>